# xmcd
#
# Track frame offsets:
#	170
#	14342
#	30365
#	51545
#	65970
#	82602
#	100575
#	114295
#	128875
#	145685
#	178320
#
# Disc length: 2572 seconds
#
# Revision: 1
# Processed by: cddbd v1.4PL0 Copyright (c) Steve Scherf et al.
# Submitted via: audiograbber 1.82.01
#
DISCID=8d0a0a0b
DTITLE=Hugh Moffatt - Loving You
DYEAR=1989
DGENRE=R&B
TTITLE0=Whenyou held me in your arms
TTITLE1=Mama Rita
TTITLE2=Old flames can't hold a candle to you
TTITLE3=Words at twenty paces
TTITLE4=Slow moving freight train
TTITLE5=No stranger to the blues
TTITLE6=Loving you
TTITLE7=Tomorrow is a long time
TTITLE8=Carolina star
TTITLE9=Jack and Lucy
TTITLE10=Roll with the weather
EXTD=
EXTT0=
EXTT1=
EXTT2=
EXTT3=
EXTT4=
EXTT5=
EXTT6=
EXTT7=
EXTT8=
EXTT9=
EXTT10=
PLAYORDER=
